<svg class="diagram-root" style="background: #f5f6f6" xmlns="http://www.w3.org/2000/svg" xmlns:xlink="http://www.w3.org/1999/xlink"><style>.diagram-root { font-family: "Helvetica Neue", sans-serif; font-size: 12px; } .t { overflow: visible; } .t-bg { y: 40; fill: #fff;   } .th { fill: #005aa0;   } .tht { fill: #fff; font-size: 14px;  } .tf { fill: #323c46; overflow: visible; } .tf.pk { fill: #005aa0; font-weight: bold; } .tf.fk { font-weight: bold; } .ty { fill: #adb1b5; font-weight: normal; text-anchor: end; } .r { fill: transparent; stroke: #c3c3c3; stroke-width: 1; } .l { stroke: 1; } .i { fill: #c2c7ce; stroke: #c2c7ce; } .i.ix { fill: #afb3b6; stroke: #000; } .fa { fill: transparent; overflow: visible; } .fa .bg.hover { fill: #f7f7f7; } .c { cy: 12; r: 4; stroke: #d2d2dc; fill: #d2d2dc; } .hr { fill: transparent; stroke: #323c46; stroke-opacity: 0.035; stroke-width: 13; } .dc { stroke: #fa5a3c; fill: #fa5a3c; } .x { stroke: white; stroke-width: 1; } .hl .th { fill: #1b9bff; } .hl .tht {  } .fhl .bg { fill: #e7f4ff; } .fhls .bg {  } .r.hl { stroke: #1b9bff; } .dim { opacity: 0.25; }</style><g class="drawing-wrapper" transform="translate(-48, 51) scale(1,1)"><g class="rs"><path d="M 246 537 m -1, 0 a 1,1 0 1,0 2,0 a 1,1 0 1,0 -2,0 M 246 537 m -0.5, 0 a 0.5,0.5 0 1,0 1,0 a 0.5,0.5 0 1,0 -1,0  M246 537 L246 537 234 537 M 246 543 m -1, 0 a 1,1 0 1,0 2,0 a 1,1 0 1,0 -2,0 M 246 543 m -0.5, 0 a 0.5,0.5 0 1,0 1,0 a 0.5,0.5 0 1,0 -1,0  M246 543 L246 543 239 537 246 531 M 246 531 m -1, 0 a 1,1 0 1,0 2,0 a 1,1 0 1,0 -2,0 M 246 531 m -0.5, 0 a 0.5,0.5 0 1,0 1,0 a 0.5,0.5 0 1,0 -1,0  M234 537 C -97.60000000000002 537, 8 281, 58 281 M 70 281 m -1, 0 a 1,1 0 1,0 2,0 a 1,1 0 1,0 -2,0 M 70 281 m -0.5, 0 a 0.5,0.5 0 1,0 1,0 a 0.5,0.5 0 1,0 -1,0  M70 281 L70 281 58 281 M64 287 L64 287 64 275" id="h3858358433" class="r"></path><path d="M 319 276 m -1, 0 a 1,1 0 1,0 2,0 a 1,1 0 1,0 -2,0 M 319 276 m -0.5, 0 a 0.5,0.5 0 1,0 1,0 a 0.5,0.5 0 1,0 -1,0  M319 276 L319 276 307 276 M 319 282 m -1, 0 a 1,1 0 1,0 2,0 a 1,1 0 1,0 -2,0 M 319 282 m -0.5, 0 a 0.5,0.5 0 1,0 1,0 a 0.5,0.5 0 1,0 -1,0  M319 282 L319 282 312 276 319 270 M 319 270 m -1, 0 a 1,1 0 1,0 2,0 a 1,1 0 1,0 -2,0 M 319 270 m -0.5, 0 a 0.5,0.5 0 1,0 1,0 a 0.5,0.5 0 1,0 -1,0  M307 276 Q 278.6 276, 250.19 278.5 T 193.37 281 M 181.37 281 m -1, 0 a 1,1 0 1,0 2,0 a 1,1 0 1,0 -2,0 M 181.37 281 m -0.5, 0 a 0.5,0.5 0 1,0 1,0 a 0.5,0.5 0 1,0 -1,0  M181.37 281 L181.37 281 193.37 281 M187.37 287 L187.37 287 187.37 275" id="h3339742587" class="r"></path><path d="M 450.37 301 m -1, 0 a 1,1 0 1,0 2,0 a 1,1 0 1,0 -2,0 M 450.37 301 m -0.5, 0 a 0.5,0.5 0 1,0 1,0 a 0.5,0.5 0 1,0 -1,0  M450.37 301 L450.37 301 462.37 301 M 450.37 307 m -1, 0 a 1,1 0 1,0 2,0 a 1,1 0 1,0 -2,0 M 450.37 307 m -0.5, 0 a 0.5,0.5 0 1,0 1,0 a 0.5,0.5 0 1,0 -1,0  M450.37 307 L450.37 307 457.37 301 450.37 295 M 450.37 295 m -1, 0 a 1,1 0 1,0 2,0 a 1,1 0 1,0 -2,0 M 450.37 295 m -0.5, 0 a 0.5,0.5 0 1,0 1,0 a 0.5,0.5 0 1,0 -1,0  M462.37 301 Q 503.03 301, 543.68 456.5 T 625 612 M 637 612 m -1, 0 a 1,1 0 1,0 2,0 a 1,1 0 1,0 -2,0 M 637 612 m -0.5, 0 a 0.5,0.5 0 1,0 1,0 a 0.5,0.5 0 1,0 -1,0  M637 612 L637 612 625 612 M631 618 L631 618 631 606" id="h391780405" class="r"></path><path d="M 938 646 m -1, 0 a 1,1 0 1,0 2,0 a 1,1 0 1,0 -2,0 M 938 646 m -0.5, 0 a 0.5,0.5 0 1,0 1,0 a 0.5,0.5 0 1,0 -1,0  M938 646 L938 646 926 646 M 938 652 m -1, 0 a 1,1 0 1,0 2,0 a 1,1 0 1,0 -2,0 M 938 652 m -0.5, 0 a 0.5,0.5 0 1,0 1,0 a 0.5,0.5 0 1,0 -1,0  M938 652 L938 652 931 646 938 640 M 938 640 m -1, 0 a 1,1 0 1,0 2,0 a 1,1 0 1,0 -2,0 M 938 640 m -0.5, 0 a 0.5,0.5 0 1,0 1,0 a 0.5,0.5 0 1,0 -1,0  M926 646 Q 906.09 646, 886.18 417 T 846.35 188 M 834.35 188 m -1, 0 a 1,1 0 1,0 2,0 a 1,1 0 1,0 -2,0 M 834.35 188 m -0.5, 0 a 0.5,0.5 0 1,0 1,0 a 0.5,0.5 0 1,0 -1,0  M834.35 188 L834.35 188 846.35 188 M840.35 194 L840.35 194 840.35 182" id="h4034236951" class="r"></path><path d="M 641.72 818.8888888888888 m -1, 0 a 1,1 0 1,0 2,0 a 1,1 0 1,0 -2,0 M 641.72 818.8888888888888 m -0.5, 0 a 0.5,0.5 0 1,0 1,0 a 0.5,0.5 0 1,0 -1,0  M641.72 818.8888888888888 L641.72 818.8888888888888 653.72 818.8888888888888 M 641.72 824.8888888888888 m -1, 0 a 1,1 0 1,0 2,0 a 1,1 0 1,0 -2,0 M 641.72 824.8888888888888 m -0.5, 0 a 0.5,0.5 0 1,0 1,0 a 0.5,0.5 0 1,0 -1,0  M641.72 824.8888888888888 L641.72 824.8888888888888 648.72 818.8888888888888 641.72 812.8888888888888 M 641.72 812.8888888888888 m -1, 0 a 1,1 0 1,0 2,0 a 1,1 0 1,0 -2,0 M 641.72 812.8888888888888 m -0.5, 0 a 0.5,0.5 0 1,0 1,0 a 0.5,0.5 0 1,0 -1,0  M653.72 818.8888888888888 Q 721.79 818.8888888888888, 789.86 707.44 T 926 596 M 938 596 m -1, 0 a 1,1 0 1,0 2,0 a 1,1 0 1,0 -2,0 M 938 596 m -0.5, 0 a 0.5,0.5 0 1,0 1,0 a 0.5,0.5 0 1,0 -1,0  M938 596 L938 596 926 596 M932 602 L932 602 932 590" id="h1734203911" class="r"></path><path d="M 506.99999999999994 843.8888888888888 m -1, 0 a 1,1 0 1,0 2,0 a 1,1 0 1,0 -2,0 M 506.99999999999994 843.8888888888888 m -0.5, 0 a 0.5,0.5 0 1,0 1,0 a 0.5,0.5 0 1,0 -1,0  M506.99999999999994 843.8888888888888 L506.99999999999994 843.8888888888888 494.99999999999994 843.8888888888888 M 506.99999999999994 849.8888888888888 m -1, 0 a 1,1 0 1,0 2,0 a 1,1 0 1,0 -2,0 M 506.99999999999994 849.8888888888888 m -0.5, 0 a 0.5,0.5 0 1,0 1,0 a 0.5,0.5 0 1,0 -1,0  M506.99999999999994 849.8888888888888 L506.99999999999994 849.8888888888888 499.99999999999994 843.8888888888888 506.99999999999994 837.8888888888888 M 506.99999999999994 837.8888888888888 m -1, 0 a 1,1 0 1,0 2,0 a 1,1 0 1,0 -2,0 M 506.99999999999994 837.8888888888888 m -0.5, 0 a 0.5,0.5 0 1,0 1,0 a 0.5,0.5 0 1,0 -1,0  M494.99999999999994 843.8888888888888 Q 464.42 843.8888888888888, 433.85 677.94 T 372.69 512 M 360.69 512 m -1, 0 a 1,1 0 1,0 2,0 a 1,1 0 1,0 -2,0 M 360.69 512 m -0.5, 0 a 0.5,0.5 0 1,0 1,0 a 0.5,0.5 0 1,0 -1,0  M360.69 512 L360.69 512 372.69 512 M366.69 518 L366.69 518 366.69 506" id="h770231114" class="r"></path><path d="M 517.5 36 m -1, 0 a 1,1 0 1,0 2,0 a 1,1 0 1,0 -2,0 M 517.5 36 m -0.5, 0 a 0.5,0.5 0 1,0 1,0 a 0.5,0.5 0 1,0 -1,0  M517.5 36 L517.5 36 529.5 36 M 517.5 42 m -1, 0 a 1,1 0 1,0 2,0 a 1,1 0 1,0 -2,0 M 517.5 42 m -0.5, 0 a 0.5,0.5 0 1,0 1,0 a 0.5,0.5 0 1,0 -1,0  M517.5 42 L517.5 42 524.5 36 517.5 30 M 517.5 30 m -1, 0 a 1,1 0 1,0 2,0 a 1,1 0 1,0 -2,0 M 517.5 30 m -0.5, 0 a 0.5,0.5 0 1,0 1,0 a 0.5,0.5 0 1,0 -1,0  M529.5 36 Q 553.38 36, 577.25 324 T 625 612 M 637 612 m -1, 0 a 1,1 0 1,0 2,0 a 1,1 0 1,0 -2,0 M 637 612 m -0.5, 0 a 0.5,0.5 0 1,0 1,0 a 0.5,0.5 0 1,0 -1,0  M637 612 L637 612 625 612 M631 618 L631 618 631 606" id="h3674415974" class="r"></path><path d="M 517.5 61 m -1, 0 a 1,1 0 1,0 2,0 a 1,1 0 1,0 -2,0 M 517.5 61 m -0.5, 0 a 0.5,0.5 0 1,0 1,0 a 0.5,0.5 0 1,0 -1,0  M517.5 61 L517.5 61 529.5 61 M 517.5 67 m -1, 0 a 1,1 0 1,0 2,0 a 1,1 0 1,0 -2,0 M 517.5 67 m -0.5, 0 a 0.5,0.5 0 1,0 1,0 a 0.5,0.5 0 1,0 -1,0  M517.5 67 L517.5 67 524.5 61 517.5 55 M 517.5 55 m -1, 0 a 1,1 0 1,0 2,0 a 1,1 0 1,0 -2,0 M 517.5 55 m -0.5, 0 a 0.5,0.5 0 1,0 1,0 a 0.5,0.5 0 1,0 -1,0  M529.5 61 Q 601.38 61, 673.25 57.5 T 817 54 M 829 54 m -1, 0 a 1,1 0 1,0 2,0 a 1,1 0 1,0 -2,0 M 829 54 m -0.5, 0 a 0.5,0.5 0 1,0 1,0 a 0.5,0.5 0 1,0 -1,0  M829 54 L829 54 817 54 M823 60 L823 60 823 48" id="h1091284783" class="r"></path><path d="M 1191 420 m -1, 0 a 1,1 0 1,0 2,0 a 1,1 0 1,0 -2,0 M 1191 420 m -0.5, 0 a 0.5,0.5 0 1,0 1,0 a 0.5,0.5 0 1,0 -1,0  M1191 420 L1191 420 1179 420 M 1191 426 m -1, 0 a 1,1 0 1,0 2,0 a 1,1 0 1,0 -2,0 M 1191 426 m -0.5, 0 a 0.5,0.5 0 1,0 1,0 a 0.5,0.5 0 1,0 -1,0  M1191 426 L1191 426 1184 420 1191 414 M 1191 414 m -1, 0 a 1,1 0 1,0 2,0 a 1,1 0 1,0 -2,0 M 1191 414 m -0.5, 0 a 0.5,0.5 0 1,0 1,0 a 0.5,0.5 0 1,0 -1,0  M1179 420 Q 1121.34 420, 1063.68 237 T 948.35 54 M 936.35 54 m -1, 0 a 1,1 0 1,0 2,0 a 1,1 0 1,0 -2,0 M 936.35 54 m -0.5, 0 a 0.5,0.5 0 1,0 1,0 a 0.5,0.5 0 1,0 -1,0  M936.35 54 L936.35 54 948.35 54 M942.35 60 L942.35 60 942.35 48" id="h1276237520" class="r"></path><path d="M 1191 445 m -1, 0 a 1,1 0 1,0 2,0 a 1,1 0 1,0 -2,0 M 1191 445 m -0.5, 0 a 0.5,0.5 0 1,0 1,0 a 0.5,0.5 0 1,0 -1,0  M1191 445 L1191 445 1179 445 M 1191 451 m -1, 0 a 1,1 0 1,0 2,0 a 1,1 0 1,0 -2,0 M 1191 451 m -0.5, 0 a 0.5,0.5 0 1,0 1,0 a 0.5,0.5 0 1,0 -1,0  M1191 451 L1191 451 1184 445 1191 439 M 1191 439 m -1, 0 a 1,1 0 1,0 2,0 a 1,1 0 1,0 -2,0 M 1191 439 m -0.5, 0 a 0.5,0.5 0 1,0 1,0 a 0.5,0.5 0 1,0 -1,0  M1179 445 Q 1159.26 445, 1139.52 520.5 T 1100.04 596 M 1088.04 596 m -1, 0 a 1,1 0 1,0 2,0 a 1,1 0 1,0 -2,0 M 1088.04 596 m -0.5, 0 a 0.5,0.5 0 1,0 1,0 a 0.5,0.5 0 1,0 -1,0  M1088.04 596 L1088.04 596 1100.04 596 M1094.04 602 L1094.04 602 1094.04 590" id="h2417326256" class="r"></path></g><g class="hrs"></g><g class="ts"><svg width="111.37" height="100" x="70" y="224" id="h1234549262" class="t"><rect height="40" width="111.37" class="th"></rect><text x="13" y="25" class="tht">Career</text><rect height="60" width="111.37" class="t-bg"></rect><text x="13" y="61" class="tf pk">Code<tspan x="98.37" class="ty">int</tspan></text><path d="M7,14A2,2 0 0,1 5,12A2,2 0 0,1 7,10A2,2 0 0,1 9,12A2,2 0 0,1 7,14M12.65,10C11.83,7.67 9.61,6 7, 6A6, 6 0 0, 0 1, 12A6, 6 0 0, 0 7, 18C9.61, 18 11.83, 16.33 12.65, 14H17V18H21V14H23V10H12.65Z" class="i pk" transform="translate(65.696171875, 48) scale(0.65)"></path><text x="13" y="86" class="tf">Extension<tspan x="98.37" class="ty">int</tspan></text></svg><svg width="114.69" height="125" x="246" y="455" id="h2268466501" class="t"><rect height="40" width="114.69" class="th"></rect><text x="13" y="25" class="tht">Student</text><rect height="85" width="114.69" class="t-bg"></rect><text x="13" y="61" class="tf pk">Carnet<tspan x="101.69" class="ty">int</tspan></text><path d="M7,14A2,2 0 0,1 5,12A2,2 0 0,1 7,10A2,2 0 0,1 9,12A2,2 0 0,1 7,14M12.65,10C11.83,7.67 9.61,6 7, 6A6, 6 0 0, 0 1, 12A6, 6 0 0, 0 7, 18C9.61, 18 11.83, 16.33 12.65, 14H17V18H21V14H23V10H12.65Z" class="i pk" transform="translate(69.016171875, 48) scale(0.65)"></path><text x="13" y="86" class="tf fk">Id_career<tspan x="101.69" class="ty">int</tspan></text><text x="13" y="111" class="tf">Semester<tspan x="101.69" class="ty">int</tspan></text></svg><svg width="110.03" height="125" x="637" y="555" id="h1060843308" class="t"><rect height="40" width="110.03" class="th"></rect><text x="13" y="25" class="tht">Course</text><rect height="85" width="110.03" class="t-bg"></rect><text x="13" y="61" class="tf pk">Id<tspan x="97.03" class="ty">int</tspan></text><path d="M7,14A2,2 0 0,1 5,12A2,2 0 0,1 7,10A2,2 0 0,1 9,12A2,2 0 0,1 7,14M12.65,10C11.83,7.67 9.61,6 7, 6A6, 6 0 0, 0 1, 12A6, 6 0 0, 0 7, 18C9.61, 18 11.83, 16.33 12.65, 14H17V18H21V14H23V10H12.65Z" class="i pk" transform="translate(64.356171875, 48) scale(0.65)"></path><text x="13" y="86" class="tf">Semester<tspan x="97.03" class="ty">int</tspan></text><text x="13" y="111" class="tf">Name<tspan x="97.03" class="ty">string</tspan></text></svg><svg width="150.04" height="175" x="938" y="539" id="h903222578" class="t"><rect height="40" width="150.04" class="th"></rect><text x="13" y="25" class="tht">Section</text><rect height="135" width="150.04" class="t-bg"></rect><text x="13" y="61" class="tf pk">Id<tspan x="137.04" class="ty">int</tspan></text><path d="M7,14A2,2 0 0,1 5,12A2,2 0 0,1 7,10A2,2 0 0,1 9,12A2,2 0 0,1 7,14M12.65,10C11.83,7.67 9.61,6 7, 6A6, 6 0 0, 0 1, 12A6, 6 0 0, 0 7, 18C9.61, 18 11.83, 16.33 12.65, 14H17V18H21V14H23V10H12.65Z" class="i pk" transform="translate(104.36617187499999, 48) scale(0.65)"></path><text x="13" y="86" class="tf">Name<tspan x="137.04" class="ty">string</tspan></text><text x="13" y="111" class="tf pk">Id_classroom<tspan x="137.04" class="ty">int</tspan></text><path d="M7,14A2,2 0 0,1 5,12A2,2 0 0,1 7,10A2,2 0 0,1 9,12A2,2 0 0,1 7,14M12.65,10C11.83,7.67 9.61,6 7, 6A6, 6 0 0, 0 1, 12A6, 6 0 0, 0 7, 18C9.61, 18 11.83, 16.33 12.65, 14H17V18H21V14H23V10H12.65Z" class="i pk" transform="translate(104.36617187499999, 98) scale(0.65)"></path><text x="13" y="136" class="tf">Hour_start<tspan x="137.04" class="ty">datetime</tspan></text><text x="13" y="161" class="tf">Hour_end<tspan x="137.04" class="ty">datetime</tspan></text></svg><svg width="107.35" height="125" x="727" y="131" id="h452274459" class="t"><rect height="40" width="107.35" class="th"></rect><text x="13" y="25" class="tht">Classroom</text><rect height="85" width="107.35" class="t-bg"></rect><text x="13" y="61" class="tf pk">Id<tspan x="94.35" class="ty">int</tspan></text><path d="M7,14A2,2 0 0,1 5,12A2,2 0 0,1 7,10A2,2 0 0,1 9,12A2,2 0 0,1 7,14M12.65,10C11.83,7.67 9.61,6 7, 6A6, 6 0 0, 0 1, 12A6, 6 0 0, 0 7, 18C9.61, 18 11.83, 16.33 12.65, 14H17V18H21V14H23V10H12.65Z" class="i pk" transform="translate(61.676171874999994, 48) scale(0.65)"></path><text x="13" y="86" class="tf">Name<tspan x="94.35" class="ty">string</tspan></text><text x="13" y="111" class="tf">Capacity<tspan x="94.35" class="ty">int</tspan></text></svg><svg width="107.35" height="100" x="829" y="-3" id="h3953294377" class="t"><rect height="40" width="107.35" class="th"></rect><text x="13" y="25" class="tht">Professor</text><rect height="60" width="107.35" class="t-bg"></rect><text x="13" y="61" class="tf pk">Cui<tspan x="94.35" class="ty">int</tspan></text><path d="M7,14A2,2 0 0,1 5,12A2,2 0 0,1 7,10A2,2 0 0,1 9,12A2,2 0 0,1 7,14M12.65,10C11.83,7.67 9.61,6 7, 6A6, 6 0 0, 0 1, 12A6, 6 0 0, 0 7, 18C9.61, 18 11.83, 16.33 12.65, 14H17V18H21V14H23V10H12.65Z" class="i pk" transform="translate(61.676171874999994, 48) scale(0.65)"></path><text x="13" y="86" class="tf">Name<tspan x="94.35" class="ty">string</tspan></text></svg><svg width="196.4" height="100" x="1191" y="363" id="h1921403176" class="t"><rect height="40" width="196.4" class="th"></rect><text x="13" y="25" class="tht">ProfessorCourseAssigment</text><rect height="60" width="196.4" class="t-bg"></rect><text x="13" y="61" class="tf pk">Id_professor<tspan x="183.4" class="ty">int</tspan></text><path d="M7,14A2,2 0 0,1 5,12A2,2 0 0,1 7,10A2,2 0 0,1 9,12A2,2 0 0,1 7,14M12.65,10C11.83,7.67 9.61,6 7, 6A6, 6 0 0, 0 1, 12A6, 6 0 0, 0 7, 18C9.61, 18 11.83, 16.33 12.65, 14H17V18H21V14H23V10H12.65Z" class="i pk" transform="translate(150.726171875, 48) scale(0.65)"></path><text x="13" y="86" class="tf pk">Id_section<tspan x="183.4" class="ty">int</tspan></text><path d="M7,14A2,2 0 0,1 5,12A2,2 0 0,1 7,10A2,2 0 0,1 9,12A2,2 0 0,1 7,14M12.65,10C11.83,7.67 9.61,6 7, 6A6, 6 0 0, 0 1, 12A6, 6 0 0, 0 7, 18C9.61, 18 11.83, 16.33 12.65, 14H17V18H21V14H23V10H12.65Z" class="i pk" transform="translate(150.726171875, 73) scale(0.65)"></path></svg><svg width="157.5" height="125" x="360" y="-21" id="h553813792" class="t"><rect height="40" width="157.5" class="th"></rect><text x="13" y="25" class="tht">CapacibilityProfessor</text><rect height="85" width="157.5" class="t-bg"></rect><text x="13" y="61" class="tf pk">Id_course<tspan x="144.5" class="ty">int</tspan></text><path d="M7,14A2,2 0 0,1 5,12A2,2 0 0,1 7,10A2,2 0 0,1 9,12A2,2 0 0,1 7,14M12.65,10C11.83,7.67 9.61,6 7, 6A6, 6 0 0, 0 1, 12A6, 6 0 0, 0 7, 18C9.61, 18 11.83, 16.33 12.65, 14H17V18H21V14H23V10H12.65Z" class="i pk" transform="translate(111.826171875, 48) scale(0.65)"></path><text x="13" y="86" class="tf pk">Id_professor<tspan x="144.5" class="ty">int</tspan></text><path d="M7,14A2,2 0 0,1 5,12A2,2 0 0,1 7,10A2,2 0 0,1 9,12A2,2 0 0,1 7,14M12.65,10C11.83,7.67 9.61,6 7, 6A6, 6 0 0, 0 1, 12A6, 6 0 0, 0 7, 18C9.61, 18 11.83, 16.33 12.65, 14H17V18H21V14H23V10H12.65Z" class="i pk" transform="translate(111.826171875, 73) scale(0.65)"></path><text x="13" y="111" class="tf">flag<tspan x="144.5" class="ty">bool</tspan></text></svg><svg width="131.37" height="100" x="319" y="219" id="h3887627471" class="t"><rect height="40" width="131.37" class="th"></rect><text x="13" y="25" class="tht">CareerCourse</text><rect height="60" width="131.37" class="t-bg"></rect><text x="13" y="61" class="tf pk">Id_career<tspan x="118.37" class="ty">int</tspan></text><path d="M7,14A2,2 0 0,1 5,12A2,2 0 0,1 7,10A2,2 0 0,1 9,12A2,2 0 0,1 7,14M12.65,10C11.83,7.67 9.61,6 7, 6A6, 6 0 0, 0 1, 12A6, 6 0 0, 0 7, 18C9.61, 18 11.83, 16.33 12.65, 14H17V18H21V14H23V10H12.65Z" class="i pk" transform="translate(85.696171875, 48) scale(0.65)"></path><text x="13" y="86" class="tf pk">Id_course<tspan x="118.37" class="ty">int</tspan></text><path d="M7,14A2,2 0 0,1 5,12A2,2 0 0,1 7,10A2,2 0 0,1 9,12A2,2 0 0,1 7,14M12.65,10C11.83,7.67 9.61,6 7, 6A6, 6 0 0, 0 1, 12A6, 6 0 0, 0 7, 18C9.61, 18 11.83, 16.33 12.65, 14H17V18H21V14H23V10H12.65Z" class="i pk" transform="translate(85.696171875, 73) scale(0.65)"></path></svg><svg width="134.72" height="100" x="506.99999999999994" y="761.8888888888888" id="h3591425654" class="t"><rect height="40" width="134.72" class="th"></rect><text x="13" y="25" class="tht">Assigment</text><rect height="60" width="134.72" class="t-bg"></rect><text x="13" y="61" class="tf pk">Id_section<tspan x="121.72" class="ty">int</tspan></text><path d="M7,14A2,2 0 0,1 5,12A2,2 0 0,1 7,10A2,2 0 0,1 9,12A2,2 0 0,1 7,14M12.65,10C11.83,7.67 9.61,6 7, 6A6, 6 0 0, 0 1, 12A6, 6 0 0, 0 7, 18C9.61, 18 11.83, 16.33 12.65, 14H17V18H21V14H23V10H12.65Z" class="i pk" transform="translate(89.046171875, 48) scale(0.65)"></path><text x="13" y="86" class="tf pk">Id_student<tspan x="121.72" class="ty">int</tspan></text><path d="M7,14A2,2 0 0,1 5,12A2,2 0 0,1 7,10A2,2 0 0,1 9,12A2,2 0 0,1 7,14M12.65,10C11.83,7.67 9.61,6 7, 6A6, 6 0 0, 0 1, 12A6, 6 0 0, 0 7, 18C9.61, 18 11.83, 16.33 12.65, 14H17V18H21V14H23V10H12.65Z" class="i pk" transform="translate(89.046171875, 73) scale(0.65)"></path></svg></g></g><text class="qdbd-link" x="10" y="20">www.quickdatabasediagrams.com</text></svg>